<?xml version="1.0" standalone="no"?>
<!DOCTYPE svg PUBLIC "-//W3C//DTD SVG 20010904//EN"
 "http://www.w3.org/TR/2001/REC-SVG-20010904/DTD/svg10.dtd">
<svg version="1.0" xmlns="http://www.w3.org/2000/svg"
 width="600.000000pt" height="600.000000pt" viewBox="0 0 600.000000 600.000000"
 preserveAspectRatio="xMidYMid meet">
<metadata>
Created by potrace 1.11, written by Peter Selinger 2001-2013
</metadata>
<g transform="translate(0.000000,600.000000) scale(0.100000,-0.100000)"
fill="#000000" stroke="none">
<path d="M2938 5796 c-25 -23 -76 -68 -113 -101 -38 -33 -73 -65 -79 -70 -6
-6 -47 -42 -90 -80 -44 -39 -87 -77 -96 -85 -9 -8 -32 -28 -51 -45 -137 -120
-386 -340 -394 -349 -5 -6 -64 -58 -130 -115 -66 -58 -127 -112 -136 -120 -9
-9 -28 -26 -42 -38 -22 -18 -97 -86 -267 -237 -19 -17 -71 -62 -115 -101 -44
-38 -97 -86 -118 -105 -61 -55 -81 -73 -118 -105 -19 -16 -70 -61 -114 -100
-44 -38 -98 -86 -120 -106 -22 -20 -107 -96 -190 -169 -82 -73 -183 -162 -224
-199 -41 -36 -83 -74 -95 -84 -63 -54 -136 -119 -271 -240 -11 -10 -54 -48
-96 -85 l-77 -67 18 -23 c24 -29 292 -332 295 -332 2 0 28 22 80 68 17 15 69
61 115 102 47 41 90 80 96 85 6 6 39 35 74 65 34 30 72 64 85 75 12 11 40 36
61 55 22 19 60 53 84 75 25 22 77 68 115 102 130 114 640 566 675 597 19 18
94 83 165 146 72 63 132 117 135 120 3 3 43 39 90 80 47 41 87 77 90 80 3 3
41 37 85 75 44 39 95 84 115 102 19 17 44 40 56 50 21 18 158 139 178 158 6 6
47 41 91 80 44 38 85 74 91 80 6 5 24 21 40 35 16 14 58 52 93 83 68 61 73 63
93 44 7 -6 44 -39 83 -72 38 -33 79 -69 90 -80 11 -11 38 -36 60 -54 22 -19
74 -64 115 -101 82 -73 334 -297 445 -394 38 -33 81 -72 96 -86 15 -14 40 -36
55 -50 16 -14 90 -79 164 -145 74 -65 149 -131 165 -146 51 -44 137 -121 215
-189 40 -36 78 -70 84 -75 6 -6 49 -44 96 -85 46 -41 90 -79 96 -85 6 -5 44
-39 84 -75 41 -36 84 -74 96 -85 12 -11 53 -47 90 -80 102 -90 437 -387 450
-399 6 -6 40 -36 74 -66 35 -30 72 -63 83 -72 11 -10 21 -18 23 -18 1 0 64 71
141 157 76 86 147 166 157 176 18 19 18 21 1 33 -9 7 -36 30 -59 51 -22 21
-79 72 -126 113 -47 41 -101 88 -120 106 -19 17 -78 69 -130 115 -52 46 -100
88 -106 94 -6 5 -39 35 -74 65 -34 30 -72 64 -84 75 -12 11 -60 54 -106 95
-47 41 -87 77 -90 80 -3 3 -39 34 -80 70 -41 35 -77 67 -80 70 -3 3 -43 39
-90 80 -47 41 -90 80 -96 85 -28 25 -181 161 -434 385 -151 134 -311 275 -355
314 -43 39 -100 89 -124 111 -25 22 -51 45 -57 50 -6 6 -39 35 -74 65 -35 30
-68 60 -74 66 -10 9 -160 142 -370 328 -38 34 -74 66 -80 71 -82 76 -161 139
-175 140 -10 1 -38 -17 -63 -39z"/>
<path d="M899 5457 c-6 -8 -4 -1117 2 -1115 5 2 105 90 163 143 18 16 198 178
239 216 21 19 57 51 80 72 23 21 90 82 149 134 58 52 108 105 111 117 2 11 5
114 6 228 l2 208 -375 0 c-207 -1 -377 -2 -377 -3z"/>
<path d="M2978 4803 c-1 -5 -59 -57 -128 -118 -69 -60 -127 -112 -130 -115 -3
-3 -61 -55 -130 -115 -69 -61 -127 -112 -130 -115 -3 -3 -41 -37 -84 -75 -44
-39 -87 -77 -97 -85 -43 -39 -94 -85 -214 -190 -71 -63 -153 -135 -180 -160
-48 -43 -131 -116 -256 -226 -130 -115 -203 -180 -213 -189 -6 -6 -90 -80
-186 -165 -96 -85 -177 -157 -180 -160 -3 -3 -39 -35 -81 -72 l-75 -66 0
-1354 c1 -1288 2 -1354 19 -1380 41 -59 22 -58 754 -58 l668 0 0 603 c1 561 2
604 19 629 43 65 12 62 646 62 634 0 603 3 646 -62 17 -25 18 -68 19 -627 l0
-600 670 -3 c621 -3 672 -2 703 15 72 37 67 -72 68 1426 l1 1347 -52 48 c-28
26 -82 74 -120 107 -38 33 -73 65 -79 70 -6 6 -49 44 -96 85 -79 70 -148 132
-174 155 -6 6 -65 57 -131 115 -66 58 -127 112 -135 120 -8 8 -69 62 -135 120
-66 58 -136 119 -155 137 -19 17 -46 41 -60 53 -14 12 -54 48 -90 80 -36 32
-130 115 -210 185 -80 71 -181 160 -225 200 -44 39 -100 89 -125 111 -25 21
-47 41 -50 44 -3 3 -43 39 -90 80 -47 41 -103 92 -125 112 -37 35 -69 48 -77
31z"/>
</g>
</svg>
